<svg width="48" height="49" viewBox="0 0 48 49" fill="none" xmlns="http://www.w3.org/2000/svg">
<g clip-path="url(#clip0)">
<path fill-rule="evenodd" clip-rule="evenodd" d="M0 24.1094C0 10.8594 10.75 0.109375 24 0.109375C37.25 0.109375 48 10.8594 48 24.1094C48 37.3594 37.25 48.1094 24 48.1094C10.75 48.1094 0 37.3594 0 24.1094ZM27.02 12.1094V9.60938H20.98V12.1094H27.02ZM13.32 25.2994C13.32 31.1994 18.1 35.9794 24 35.9794C29.89 35.9794 34.67 31.2094 34.67 25.3094C34.67 19.4094 29.9 14.6294 24 14.6294C18.1 14.6294 13.32 19.3994 13.32 25.2994ZM22.75 26.5594V18.0494H25.25V24.0594H29.34V26.5594H22.75Z" fill="black"/>
</g>
<defs>
<clipPath id="clip0">
<rect width="48" height="48" fill="white" transform="translate(0 0.109375)"/>
</clipPath>
</defs>
</svg>
