<svg width="48" height="49" viewBox="0 0 48 49" fill="none" xmlns="http://www.w3.org/2000/svg">
<g clip-path="url(#clip0)">
<path d="M0 24.1094C0 10.8545 10.7452 0.109375 24 0.109375C37.2548 0.109375 48 10.8545 48 24.1094C48 37.3642 37.2548 48.1094 24 48.1094C10.7452 48.1094 0 37.3642 0 24.1094Z" fill="black"/>
<path d="M29.5998 16.4096C29.5998 13.3096 27.0998 10.8096 23.9998 10.8096C20.8998 10.8096 18.3998 13.3096 18.3998 16.4096C18.3998 19.5096 20.8998 22.0096 23.9998 22.0096C27.0998 22.0096 29.5998 19.5096 29.5998 16.4096Z" fill="white"/>
<path d="M29.5998 35.3094H35.2998V34.8094C35.2998 28.9094 30.4998 24.1094 24.5998 24.1094H23.4998C17.5998 24.1094 12.7998 28.9094 12.7998 34.8094V35.3094H18.2998V30.6094H20.2998V35.3094H27.5998V30.6094H29.5998V35.3094Z" fill="white"/>
</g>
<defs>
<clipPath id="clip0">
<path d="M0 24.1094C0 10.8545 10.7452 0.109375 24 0.109375C37.2548 0.109375 48 10.8545 48 24.1094C48 37.3642 37.2548 48.1094 24 48.1094C10.7452 48.1094 0 37.3642 0 24.1094Z" fill="white"/>
</clipPath>
</defs>
</svg>
