<svg width="48" height="49" viewBox="0 0 48 49" fill="none" xmlns="http://www.w3.org/2000/svg">
<g clip-path="url(#clip0)">
<path fill-rule="evenodd" clip-rule="evenodd" d="M48 24.1094C48 37.3642 37.2548 48.1094 24 48.1094C10.7452 48.1094 0 37.3642 0 24.1094C0 10.8545 10.7452 0.109375 24 0.109375C37.2548 0.109375 48 10.8545 48 24.1094ZM16.7001 34.6094H31.2001V34.1094C30.7001 30.9094 28.2001 28.4094 25.0001 28.0094V15.6094H30.0001L27.0001 22.6094H34.6001L30.8001 13.7094V13.6094H17.4001V13.7094L13.6001 22.6094H21.2001L18.2001 15.6094H23.0001V28.0094C19.8001 28.5094 17.3001 30.9094 16.8001 34.1094C16.7001 34.3094 16.7001 34.4094 16.7001 34.6094Z" fill="black"/>
</g>
<defs>
<clipPath id="clip0">
<rect width="48" height="48" fill="white" transform="translate(0 0.109375)"/>
</clipPath>
</defs>
</svg>
